<?xml version="1.0" standalone="no"?><!DOCTYPE svg PUBLIC "-//W3C//DTD SVG 1.1//EN" "http://www.w3.org/Graphics/SVG/1.1/DTD/svg11.dtd"><svg class="icon" width="200px" height="200.00px" viewBox="0 0 1024 1024" version="1.1" xmlns="http://www.w3.org/2000/svg"><path d="M255.6 412.8h364.2c8.8 0 15.9-7.1 15.9-15.9s-7.1-15.9-15.9-15.9H255.6c-8.8 0-15.9 7.1-15.9 15.9s7.1 15.9 15.9 15.9zM255.6 558h364.2c8.8 0 15.9-7.1 15.9-15.9s-7.1-15.9-15.9-15.9H255.6c-8.8 0-15.9 7.1-15.9 15.9s7.1 15.9 15.9 15.9zM255.6 703.3h364.2c8.8 0 15.9-7.1 15.9-15.9s-7.1-15.9-15.9-15.9H255.6c-8.8 0-15.9 7.1-15.9 15.9s7.1 15.9 15.9 15.9z" fill="#d81e06" /><path d="M709.1 271.8h-20.9c-0.6 0-1.1-0.5-1.1-1.1V202c0-14.3-11.7-26-26-26H203.8c-27.1 0-49 22-49 49v80.3c0 0.3 0.1 0.5 0.3 0.8-0.2 0.2-0.3 0.5-0.3 0.8v255.7c0 8.5 6.9 15.5 15.5 15.5 8.5 0 15.5-6.9 15.5-15.5V306.9l0.4-0.4h516.2l0.1 0.1v486c0 14.3-11.7 26-26 26H209.9c-13.3 0-24.2-10.9-24.2-24.2V653.5c0-8.5-6.9-15.5-15.5-15.5-8.5 0-15.5 6.9-15.5 15.5v147.7c0 27.1 22 49 49 49H684c27.1 0 49-22 49-49V306.9c0-0.1 0-0.3-0.1-0.4 0.5-0.1 0.9-0.6 0.9-1.1v-8.7c0.1-14.2-12.3-24.9-24.7-24.9z m-481.6-63.9h428.2c-0.6 0-0.1 0.5-0.1 1.1v63.4c0 0.6-0.5 1.1-1.1 1.1H225.7c-3 0-39.2-0.1-39.2-32.1 0.1-32.4 37.3-33.5 41-33.5z" fill="#d81e06" /></svg>